<svg width="52" height="50" viewBox="0 0 52 50" fill="none" xmlns="http://www.w3.org/2000/svg">
<g clip-path="url(#clip0_723_10479)">
<path d="M37.1046 9.31246C36.938 9.31246 36.7713 9.27079 36.6255 9.18746C32.6255 7.12496 29.1671 6.24996 25.0213 6.24996C20.8963 6.24996 16.9796 7.22913 13.4171 9.18746C12.9171 9.45829 12.2921 9.27079 12.0005 8.77079C11.7296 8.27079 11.9171 7.62496 12.4171 7.35413C16.2921 5.24996 20.5421 4.16663 25.0213 4.16663C29.4588 4.16663 33.3338 5.14579 37.5838 7.33329C38.1046 7.60413 38.2921 8.22913 38.0213 8.72913C37.8338 9.10413 37.4796 9.31246 37.1046 9.31246ZM7.29214 20.25C7.08381 20.25 6.87548 20.1875 6.68798 20.0625C6.20881 19.7291 6.10464 19.0833 6.43798 18.6041C8.50048 15.6875 11.1255 13.3958 14.2505 11.7916C20.7921 8.41663 29.1671 8.39579 35.7296 11.7708C38.8546 13.375 41.4796 15.6458 43.5421 18.5416C43.8755 19 43.7713 19.6666 43.2921 20C42.813 20.3333 42.1671 20.2291 41.8338 19.75C39.9588 17.125 37.5838 15.0625 34.7713 13.625C28.7921 10.5625 21.1463 10.5625 15.188 13.6458C12.3546 15.1041 9.97964 17.1875 8.10464 19.8125C7.93798 20.1041 7.62548 20.25 7.29214 20.25ZM20.313 45.3958C20.0421 45.3958 19.7713 45.2916 19.5838 45.0833C17.7713 43.2708 16.7921 42.1041 15.3963 39.5833C13.9588 37.0208 13.2088 33.8958 13.2088 30.5416C13.2088 24.3541 18.5005 19.3125 25.0005 19.3125C31.5005 19.3125 36.7921 24.3541 36.7921 30.5416C36.7921 31.125 36.3338 31.5833 35.7505 31.5833C35.1671 31.5833 34.7088 31.125 34.7088 30.5416C34.7088 25.5 30.3546 21.3958 25.0005 21.3958C19.6463 21.3958 15.2921 25.5 15.2921 30.5416C15.2921 33.5416 15.9588 36.3125 17.2296 38.5625C18.563 40.9583 19.4796 41.9791 21.0838 43.6041C21.4796 44.0208 21.4796 44.6666 21.0838 45.0833C20.8546 45.2916 20.5838 45.3958 20.313 45.3958ZM35.2505 41.5416C32.7713 41.5416 30.5838 40.9166 28.7921 39.6875C25.688 37.5833 23.8338 34.1666 23.8338 30.5416C23.8338 29.9583 24.2921 29.5 24.8755 29.5C25.4588 29.5 25.9171 29.9583 25.9171 30.5416C25.9171 33.4791 27.4171 36.25 29.9588 37.9583C31.438 38.9583 33.1671 39.4375 35.2505 39.4375C35.7505 39.4375 36.5838 39.375 37.4171 39.2291C37.9796 39.125 38.5213 39.5 38.6255 40.0833C38.7296 40.6458 38.3546 41.1875 37.7713 41.2916C36.5838 41.5208 35.5421 41.5416 35.2505 41.5416ZM31.063 45.8333C30.9796 45.8333 30.8755 45.8125 30.7921 45.7916C27.4796 44.875 25.313 43.6458 23.0421 41.4166C20.1255 38.5208 18.5213 34.6666 18.5213 30.5416C18.5213 27.1666 21.3963 24.4166 24.938 24.4166C28.4796 24.4166 31.3546 27.1666 31.3546 30.5416C31.3546 32.7708 33.2921 34.5833 35.688 34.5833C38.0838 34.5833 40.0213 32.7708 40.0213 30.5416C40.0213 22.6875 33.2505 16.3125 24.9171 16.3125C19.0005 16.3125 13.5838 19.6041 11.1463 24.7083C10.3338 26.3958 9.91714 28.375 9.91714 30.5416C9.91714 32.1666 10.063 34.7291 11.313 38.0625C11.5213 38.6041 11.2505 39.2083 10.7088 39.3958C10.1671 39.6041 9.56298 39.3125 9.37548 38.7916C8.35464 36.0625 7.85464 33.3541 7.85464 30.5416C7.85464 28.0416 8.33381 25.7708 9.27131 23.7916C12.0421 17.9791 18.188 14.2083 24.9171 14.2083C34.3963 14.2083 42.1046 21.5208 42.1046 30.5208C42.1046 33.8958 39.2296 36.6458 35.688 36.6458C32.1463 36.6458 29.2713 33.8958 29.2713 30.5208C29.2713 28.2916 27.3338 26.4791 24.938 26.4791C22.5421 26.4791 20.6046 28.2916 20.6046 30.5208C20.6046 34.0833 21.9796 37.4166 24.5005 39.9166C26.4796 41.875 28.3755 42.9583 31.313 43.7708C31.8755 43.9166 32.188 44.5 32.0421 45.0416C31.938 45.5208 31.5005 45.8333 31.063 45.8333Z" fill="#27CD74"/>
</g>
<g clip-path="url(#clip1_723_10479)">
<path d="M16.5833 6.25H12.4167C11.3116 6.25 10.2518 6.68899 9.47039 7.47039C8.68899 8.25179 8.25 9.3116 8.25 10.4167V14.5833M37.4167 6.25H41.5833C42.6884 6.25 43.7482 6.68899 44.5296 7.47039C45.311 8.25179 45.75 9.3116 45.75 10.4167V14.5833M35.3333 16.6667V20.8333M18.6667 16.6667V20.8333M20.75 33.3333C20.75 33.3333 22.8333 35.4167 27 35.4167C31.1667 35.4167 33.25 33.3333 33.25 33.3333M27 16.6667V27.0833H24.9167M16.5833 43.75H12.4167C11.3116 43.75 10.2518 43.311 9.47039 42.5296C8.68899 41.7482 8.25 40.6884 8.25 39.5833V35.4167M37.4167 43.75H41.5833C42.6884 43.75 43.7482 43.311 44.5296 42.5296C45.311 41.7482 45.75 40.6884 45.75 39.5833V35.4167" stroke="#27CD74" stroke-width="3.125" stroke-linecap="round" stroke-linejoin="round"/>
</g>
<defs>
<clipPath id="clip0_723_10479">
<rect width="25" height="50" fill="white"/>
</clipPath>
<clipPath id="clip1_723_10479">
<rect width="25" height="50" fill="white" transform="translate(27)"/>
</clipPath>
</defs>
</svg>
