<svg width="16" height="16" viewBox="0 0 16 16" fill="none" xmlns="http://www.w3.org/2000/svg">
<g clip-path="url(#clip0_4799_15422)">
<path d="M11.75 8C11.75 10.0711 10.0711 11.75 8 11.75C5.92893 11.75 4.25 10.0711 4.25 8C4.25 5.92893 5.92893 4.25 8 4.25C10.0711 4.25 11.75 5.92893 11.75 8Z" stroke="#F7F9FF"/>
<path d="M8 2.75C8.13261 2.75 8.25978 2.69732 8.35355 2.60355C8.44732 2.50978 8.5 2.38261 8.5 2.25V1C8.5 0.867392 8.44732 0.740215 8.35355 0.646447C8.25979 0.552678 8.13261 0.5 8 0.5C7.86739 0.5 7.74021 0.552678 7.64645 0.646447C7.55268 0.740215 7.5 0.867392 7.5 1V2.25C7.5 2.38261 7.55268 2.50978 7.64645 2.60355C7.74022 2.69732 7.86739 2.75 8 2.75ZM3.5806 4.28769C3.62699 4.3343 3.68211 4.3713 3.74282 4.39657C3.80353 4.42185 3.86863 4.4349 3.93439 4.43498C4.00015 4.43505 4.06528 4.42216 4.12605 4.39703C4.18682 4.3719 4.24203 4.33503 4.28853 4.28853C4.33503 4.24203 4.3719 4.18682 4.39703 4.12605C4.42216 4.06528 4.43505 4.00015 4.43498 3.93439C4.4349 3.86863 4.42185 3.80353 4.39657 3.74282C4.3713 3.68211 4.3343 3.62699 4.28769 3.5806L3.40381 2.69672C3.35739 2.65024 3.30227 2.61337 3.2416 2.5882C3.18092 2.56303 3.11588 2.55007 3.0502 2.55005C2.98451 2.55003 2.91947 2.56295 2.85878 2.58808C2.79809 2.61321 2.74294 2.65005 2.69649 2.69649C2.65005 2.74294 2.61321 2.79809 2.58808 2.85878C2.56295 2.91947 2.55003 2.98451 2.55005 3.0502C2.55007 3.11588 2.56303 3.18092 2.5882 3.2416C2.61337 3.30227 2.65024 3.35739 2.69672 3.40381L3.5806 4.28769ZM2.75 8C2.75 7.86739 2.69732 7.74022 2.60355 7.64645C2.50978 7.55268 2.38261 7.5 2.25 7.5H1C0.867392 7.5 0.740215 7.55268 0.646447 7.64645C0.552678 7.74021 0.5 7.86739 0.5 8C0.5 8.13261 0.552678 8.25979 0.646447 8.35355C0.740215 8.44732 0.867392 8.5 1 8.5H2.25C2.38261 8.5 2.50978 8.44732 2.60355 8.35355C2.69732 8.25978 2.75 8.13261 2.75 8V8ZM3.5806 11.7123L2.69672 12.5962C2.65024 12.6426 2.61337 12.6977 2.5882 12.7584C2.56303 12.8191 2.55007 12.8841 2.55005 12.9498C2.55003 13.0155 2.56295 13.0805 2.58808 13.1412C2.61321 13.2019 2.65005 13.2571 2.69649 13.3035C2.74294 13.35 2.79809 13.3868 2.85878 13.4119C2.91947 13.437 2.98451 13.45 3.0502 13.4499C3.11588 13.4499 3.18092 13.437 3.2416 13.4118C3.30227 13.3866 3.35739 13.3498 3.40381 13.3033L4.28769 12.4194C4.3343 12.373 4.3713 12.3179 4.39657 12.2572C4.42185 12.1965 4.4349 12.1314 4.43498 12.0656C4.43505 11.9999 4.42216 11.9347 4.39703 11.874C4.3719 11.8132 4.33503 11.758 4.28853 11.7115C4.24203 11.665 4.18682 11.6281 4.12605 11.603C4.06528 11.5778 4.00015 11.5649 3.93439 11.565C3.86863 11.5651 3.80353 11.5782 3.74282 11.6034C3.68211 11.6287 3.62699 11.6657 3.5806 11.7123V11.7123ZM8 13.25C7.86739 13.25 7.74022 13.3027 7.64645 13.3964C7.55268 13.4902 7.5 13.6174 7.5 13.75V15C7.5 15.1326 7.55268 15.2598 7.64645 15.3536C7.74021 15.4473 7.86739 15.5 8 15.5C8.13261 15.5 8.25979 15.4473 8.35355 15.3536C8.44732 15.2598 8.5 15.1326 8.5 15V13.75C8.5 13.6174 8.44732 13.4902 8.35355 13.3964C8.25978 13.3027 8.13261 13.25 8 13.25V13.25ZM12.4194 11.7123C12.373 11.6657 12.3179 11.6287 12.2572 11.6034C12.1965 11.5782 12.1314 11.5651 12.0656 11.565C11.9999 11.5649 11.9347 11.5778 11.874 11.603C11.8132 11.6281 11.758 11.665 11.7115 11.7115C11.665 11.758 11.6281 11.8132 11.603 11.874C11.5778 11.9347 11.5649 11.9999 11.565 12.0656C11.5651 12.1314 11.5782 12.1965 11.6034 12.2572C11.6287 12.3179 11.6657 12.373 11.7123 12.4194L12.5962 13.3033C12.6426 13.3498 12.6977 13.3866 12.7584 13.4118C12.8191 13.437 12.8841 13.4499 12.9498 13.4499C13.0155 13.45 13.0805 13.437 13.1412 13.4119C13.2019 13.3868 13.2571 13.35 13.3035 13.3035C13.35 13.2571 13.3868 13.2019 13.4119 13.1412C13.437 13.0805 13.45 13.0155 13.45 12.9498C13.4499 12.8841 13.437 12.8191 13.4118 12.7584C13.3866 12.6977 13.3498 12.6426 13.3033 12.5962L12.4194 11.7123ZM15 7.5H13.75C13.6174 7.5 13.4902 7.55268 13.3964 7.64645C13.3027 7.74021 13.25 7.86739 13.25 8C13.25 8.13261 13.3027 8.25979 13.3964 8.35355C13.4902 8.44732 13.6174 8.5 13.75 8.5H15C15.1326 8.5 15.2598 8.44732 15.3536 8.35355C15.4473 8.25979 15.5 8.13261 15.5 8C15.5 7.86739 15.4473 7.74021 15.3536 7.64645C15.2598 7.55268 15.1326 7.5 15 7.5ZM12.0659 4.43414C12.1315 4.43423 12.1966 4.42133 12.2572 4.3962C12.3179 4.37106 12.373 4.33419 12.4194 4.28769L13.3033 3.40381C13.3498 3.35739 13.3866 3.30227 13.4118 3.2416C13.437 3.18092 13.4499 3.11588 13.4499 3.0502C13.45 2.98451 13.437 2.91947 13.4119 2.85878C13.3868 2.79809 13.35 2.74294 13.3035 2.69649C13.2571 2.65005 13.2019 2.61321 13.1412 2.58808C13.0805 2.56295 13.0155 2.55003 12.9498 2.55005C12.8841 2.55007 12.8191 2.56303 12.7584 2.5882C12.6977 2.61337 12.6426 2.65024 12.5962 2.69672L11.7123 3.5806C11.6424 3.65052 11.5948 3.73961 11.5755 3.8366C11.5562 3.93359 11.5661 4.03413 11.6039 4.12549C11.6418 4.21686 11.7058 4.29495 11.7881 4.34989C11.8703 4.40483 11.967 4.43415 12.0659 4.43414H12.0659Z" fill="#F7F9FF"/>
</g>
<defs>
<clipPath id="clip0_4799_15422">
<rect width="16" height="16" fill="white"/>
</clipPath>
</defs>
</svg>
