<svg width="21" height="24" viewBox="0 0 21 24" fill="none" xmlns="http://www.w3.org/2000/svg">
<path d="M19.7836 10.7623C18.8594 10.3534 17.5391 10.9015 16.6049 12.2265C15.9912 13.0965 15.8105 14.3352 15.0048 14.4644C14.6969 14.5139 14.5296 14.3265 14.4426 14.0568C14.351 13.6018 14.371 12.8984 14.541 11.9147L16.3747 3.67331C16.5205 3.04358 16.1786 2.43392 15.3554 2.23517C14.5323 2.03641 13.9133 2.43995 13.7667 3.06968L12.1298 10.5421C11.7999 12.1924 11.1883 11.8926 11.3362 10.0235L11.8053 1.26146C11.8434 0.584216 11.3228 0.0307768 10.5532 0.00133138C9.78357 -0.028114 9.2288 0.433643 9.18931 1.11022L8.74228 10.0837C8.64658 11.8953 7.99811 11.2127 7.85758 9.90034L6.81762 2.64071C6.71121 1.9561 6.06944 1.48297 5.29984 1.60611C4.53025 1.72991 4.06514 2.36633 4.17155 3.05094L5.17202 9.68552C5.56887 12.2185 5.05023 12.9198 4.19631 10.1694L3.12958 6.13735C2.95559 5.49022 2.31783 5.08869 1.51678 5.31355C0.715729 5.5384 0.370415 6.18286 0.543741 6.82999L1.58638 10.6197C2.02203 13.3481 2.02203 14.4249 2.02203 16.3034C2.02203 18.1819 2.88599 24 9.49447 24C16.103 24 17.4621 17.2871 17.525 16.8622C17.525 16.8622 17.6073 15.8717 18.2986 14.9449C19.2817 13.6272 19.9717 12.8328 20.3899 12.3577C20.6021 12.1174 20.8082 11.2153 19.7836 10.7623Z" fill="#AF7E57"/>
<path d="M14.2886 14.4578C14.0878 14.3762 13.9178 14.1661 13.8978 13.709C12.6316 13.8823 10.9191 14.237 9.60141 15.5259C7.8909 17.1983 7.59912 19.0058 7.61317 20.2151C7.62455 21.1901 8.15657 21.6519 8.3125 20.207C8.50858 18.3821 9.83965 14.7576 14.2886 14.4578Z" fill="#90603E"/>
</svg>
