<svg width="90" height="90" viewBox="0 0 90 90" fill="none" xmlns="http://www.w3.org/2000/svg">
<path d="M0 22.5C0 10.0736 10.0736 0 22.5 0H67.5C79.9264 0 90 10.0736 90 22.5V67.5C90 79.9264 79.9264 90 67.5 90H22.5C10.0736 90 0 79.9264 0 67.5V22.5Z" fill="url(#paint0_linear_588_1127)"/>
<path d="M73.7877 42.4615L70.0377 38.7115C69.9507 38.6244 69.8473 38.5553 69.7336 38.5082C69.6199 38.4611 69.498 38.4368 69.3748 38.4368C69.2517 38.4368 69.1298 38.4611 69.0161 38.5082C68.9024 38.5553 68.799 38.6244 68.712 38.7115L64.962 42.4615C64.8749 42.5485 64.8058 42.6518 64.7587 42.7656C64.7116 42.8793 64.6874 43.0012 64.6874 43.1243V52.4993C64.6873 52.6224 64.7116 52.7444 64.7587 52.8581C64.8058 52.9719 64.8748 53.0752 64.9619 53.1623C65.0489 53.2494 65.1523 53.3184 65.2661 53.3655C65.3798 53.4126 65.5017 53.4368 65.6249 53.4368H73.1249C73.248 53.4368 73.3699 53.4126 73.4837 53.3655C73.5974 53.3184 73.7008 53.2494 73.7879 53.1623C73.8749 53.0752 73.944 52.9719 73.9911 52.8581C74.0382 52.7444 74.0624 52.6224 74.0624 52.4993V43.1243C74.0624 43.0012 74.0381 42.8793 73.991 42.7656C73.9439 42.6518 73.8748 42.5485 73.7877 42.4615Z" fill="white"/>
<path d="M57.1874 30.9368H29.0624C28.9392 30.9368 28.8173 30.961 28.7036 31.0081C28.5898 31.0552 28.4864 31.1243 28.3994 31.2113C28.3123 31.2984 28.2433 31.4018 28.1962 31.5155C28.1491 31.6293 28.1248 31.7512 28.1249 31.8743V45.9368C28.1248 46.1153 28.1757 46.29 28.2716 46.4405C28.3674 46.591 28.5042 46.711 28.666 46.7864L42.7285 53.3489C42.8526 53.4068 42.9879 53.4368 43.1249 53.4368C43.2618 53.4368 43.3972 53.4068 43.5213 53.3489L57.5838 46.7864C57.7455 46.711 57.8823 46.591 57.9782 46.4405C58.074 46.29 58.1249 46.1153 58.1249 45.9368V31.8743C58.1249 31.7512 58.1007 31.6293 58.0536 31.5155C58.0065 31.4018 57.9374 31.2984 57.8504 31.2113C57.7633 31.1243 57.6599 31.0552 57.5462 31.0081C57.4324 30.961 57.3105 30.9368 57.1874 30.9368Z" fill="white"/>
<path d="M57.1874 30.9368H29.0624C28.9392 30.9368 28.8173 30.961 28.7036 31.0081C28.5898 31.0552 28.4864 31.1243 28.3994 31.2113C28.3123 31.2984 28.2433 31.4018 28.1962 31.5155C28.1491 31.6293 28.1248 31.7512 28.1249 31.8743V40.9093L42.7285 47.7239C42.8526 47.7818 42.9879 47.8118 43.1249 47.8118C43.2618 47.8118 43.3972 47.7818 43.5213 47.7239L58.1249 40.9091V31.8743C58.1249 31.7512 58.1007 31.6293 58.0536 31.5155C58.0065 31.4018 57.9374 31.2984 57.8504 31.2113C57.7633 31.1243 57.6599 31.0552 57.5462 31.0081C57.4324 30.961 57.3105 30.9368 57.1874 30.9368Z" fill="white"/>
<path d="M69.7695 27.2738L43.5195 15.0863C43.3957 15.0293 43.2611 14.9998 43.1249 14.9998C42.9887 14.9998 42.854 15.0293 42.7303 15.0863L16.4803 27.2738C16.3181 27.3491 16.1809 27.4691 16.0847 27.6198C15.9885 27.7705 15.9374 27.9455 15.9374 28.1243C15.9374 28.3031 15.9885 28.4781 16.0847 28.6288C16.1809 28.7795 16.3181 28.8996 16.4803 28.9748L42.7303 41.1623C42.854 41.2196 42.9886 41.2493 43.1249 41.2493C43.2612 41.2493 43.3958 41.2196 43.5195 41.1623L69.7695 28.9748C69.9316 28.8996 70.0689 28.7795 70.1651 28.6288C70.2613 28.4781 70.3124 28.3031 70.3124 28.1243C70.3124 27.9455 70.2613 27.7705 70.1651 27.6198C70.0689 27.4691 69.9316 27.3491 69.7695 27.2738Z" fill="white"/>
<path d="M69.3749 36.5618C69.2517 36.5619 69.1298 36.5376 69.0161 36.4905C68.9023 36.4434 68.799 36.3744 68.7119 36.2873C68.6248 36.2003 68.5558 36.0969 68.5087 35.9831C68.4616 35.8694 68.4373 35.7475 68.4374 35.6243V29.0618H43.1249C42.8762 29.0618 42.6378 28.9631 42.462 28.7872C42.2861 28.6114 42.1874 28.373 42.1874 28.1243C42.1874 27.8757 42.2861 27.6372 42.462 27.4614C42.6378 27.2856 42.8762 27.1868 43.1249 27.1868H69.3749C69.498 27.1868 69.6199 27.211 69.7337 27.2581C69.8474 27.3052 69.9508 27.3743 70.0379 27.4613C70.1249 27.5484 70.194 27.6518 70.2411 27.7655C70.2882 27.8793 70.3124 28.0012 70.3124 28.1243L70.3124 35.6243C70.3124 35.7475 70.2882 35.8694 70.2411 35.9831C70.194 36.0969 70.1249 36.2003 70.0379 36.2873C69.9508 36.3744 69.8474 36.4434 69.7337 36.4905C69.6199 36.5376 69.498 36.5619 69.3749 36.5618Z" fill="white"/>
<path d="M69.3749 42.1868C71.4459 42.1868 73.1249 40.5079 73.1249 38.4368C73.1249 36.3657 71.4459 34.6868 69.3749 34.6868C67.3038 34.6868 65.6249 36.3657 65.6249 38.4368C65.6249 40.5079 67.3038 42.1868 69.3749 42.1868Z" fill="white"/>
<path d="M61.6621 71.2164C60.4064 70.8739 59.0624 67.7914 59.0624 63.7493C59.0624 59.7073 60.4064 56.6247 61.6621 56.2823C61.8928 56.2193 62.0907 56.0705 62.2153 55.8665C62.34 55.6624 62.382 55.4184 62.3327 55.1844C62.2834 54.9504 62.1466 54.744 61.9502 54.6076C61.7538 54.4711 61.5127 54.4149 61.2762 54.4503L43.1249 57.1767L24.9677 54.4494L24.5081 54.3835C24.464 54.3772 24.4194 54.3742 24.3749 54.3743C21.7024 54.3743 19.6874 58.4045 19.6874 63.7493C19.6874 69.0942 21.7024 73.1243 24.3749 73.1243C24.4194 73.1245 24.464 73.1214 24.5081 73.1152L43.1249 70.3219L61.2761 73.0484C61.5126 73.0838 61.7537 73.0275 61.9501 72.8911C62.1465 72.7546 62.2833 72.5483 62.3326 72.3143C62.3819 72.0803 62.34 71.8363 62.2153 71.6322C62.0906 71.4281 61.8928 71.2793 61.6621 71.2164Z" fill="white"/>
<path d="M46.8749 55.3118H39.3749C38.8778 55.3124 38.4012 55.5101 38.0497 55.8616C37.6982 56.2131 37.5004 56.6897 37.4999 57.1868V74.0618C37.4999 74.215 37.5374 74.3659 37.6093 74.5013C37.6811 74.6366 37.785 74.7523 37.9119 74.8382C38.0387 74.9241 38.1847 74.9776 38.3371 74.9941C38.4894 75.0105 38.6434 74.9894 38.7857 74.9325L43.1249 73.1967L47.464 74.9325C47.6063 74.9894 47.7603 75.0105 47.9127 74.9941C48.065 74.9776 48.211 74.9241 48.3379 74.8382C48.4647 74.7523 48.5686 74.6366 48.6404 74.5013C48.7123 74.3659 48.7498 74.215 48.7499 74.0618V57.1868C48.7493 56.6897 48.5516 56.2131 48.2001 55.8616C47.8485 55.5101 47.372 55.3124 46.8749 55.3118Z" fill="white"/>
<path d="M61.8749 54.3743C61.8303 54.3742 61.7858 54.3772 61.7416 54.3835L61.2821 54.4494C61.2438 54.455 61.2059 54.463 61.1685 54.4732C58.8243 55.1131 57.1874 58.9272 57.1874 63.7493C57.1874 68.5714 58.8243 72.3855 61.1685 73.0254C61.2059 73.0356 61.2438 73.0436 61.2821 73.0492L61.7416 73.1152C61.7858 73.1214 61.8303 73.1245 61.8749 73.1243C64.5473 73.1243 66.5624 69.0942 66.5624 63.7493C66.5624 58.4045 64.5473 54.3743 61.8749 54.3743Z" fill="white"/>
<path d="M59.9999 62.8118H57.2093C57.1954 63.1198 57.1874 63.432 57.1874 63.7493C57.1874 68.5714 58.8243 72.3855 61.1685 73.0254C61.2059 73.0356 61.2438 73.0436 61.2821 73.0492L61.7416 73.1152C61.7858 73.1214 61.8303 73.1245 61.8749 73.1243C62.1953 73.1231 62.513 73.064 62.8124 72.9497V65.6243C62.8116 64.8786 62.515 64.1637 61.9877 63.6365C61.4604 63.1092 60.7455 62.8126 59.9999 62.8118Z" fill="white"/>
<defs>
<linearGradient id="paint0_linear_588_1127" x1="45" y1="0" x2="45" y2="90" gradientUnits="userSpaceOnUse">
<stop stop-color="#925FE2"/>
<stop offset="1" stop-color="#7042C0"/>
</linearGradient>
</defs>
</svg>
