<svg width="21" height="21" viewBox="0 0 21 21" fill="none" xmlns="http://www.w3.org/2000/svg">
    <path fill-rule="evenodd" clip-rule="evenodd" d="M12.1288 18.9718L11.5867 19.8877C11.1035 20.704 9.89647 20.704 9.41331 19.8877L8.87121 18.9718C8.45073 18.2614 8.24049 17.9063 7.90279 17.7098C7.56509 17.5134 7.13992 17.5061 6.28958 17.4915C5.03422 17.4698 4.24689 17.3929 3.58658 17.1194C2.36144 16.6119 1.38807 15.6386 0.880602 14.4134C0.5 13.4946 0.5 12.3297 0.5 10V9C0.5 5.72657 0.5 4.08985 1.2368 2.88751C1.64908 2.21473 2.21473 1.64908 2.88751 1.2368C4.08985 0.5 5.72657 0.5 9 0.5H12C15.2734 0.5 16.9101 0.5 18.1125 1.2368C18.7853 1.64908 19.3509 2.21473 19.7632 2.88751C20.5 4.08985 20.5 5.72657 20.5 9V10C20.5 12.3297 20.5 13.4946 20.1194 14.4134C19.6119 15.6386 18.6386 16.6119 17.4134 17.1194C16.7531 17.3929 15.9658 17.4698 14.7104 17.4915C13.86 17.5061 13.4349 17.5134 13.0972 17.7098C12.7595 17.9062 12.5492 18.2614 12.1288 18.9718ZM6.5 10.25C6.08579 10.25 5.75 10.5858 5.75 11C5.75 11.4142 6.08579 11.75 6.5 11.75H12C12.4142 11.75 12.75 11.4142 12.75 11C12.75 10.5858 12.4142 10.25 12 10.25H6.5ZM5.75 7.5C5.75 7.08579 6.08579 6.75 6.5 6.75H14.5C14.9142 6.75 15.25 7.08579 15.25 7.5C15.25 7.91421 14.9142 8.25 14.5 8.25H6.5C6.08579 8.25 5.75 7.91421 5.75 7.5Z" fill="#4ABF4F"/>
</svg>
