<svg width="25" height="26" viewBox="0 0 25 26" fill="none" xmlns="http://www.w3.org/2000/svg">
<path d="M8.85179 22.2418C9.69288 23.311 11.0142 24 12.5 24C13.9858 24 15.3071 23.311 16.1482 22.2418C13.7264 22.57 11.2736 22.57 8.85179 22.2418Z" fill="#0A0B0D"/>
<path d="M19.2491 11V11.7041C19.2491 12.5491 19.4903 13.3752 19.9422 14.0782L21.0496 15.8012C22.0612 17.3749 21.289 19.5139 19.5296 20.0116C14.9273 21.3134 10.0727 21.3134 5.47036 20.0116C3.71105 19.5139 2.93882 17.3749 3.95036 15.8012L5.0578 14.0782C5.50972 13.3752 5.75087 12.5491 5.75087 11.7041V11C5.75087 7.13401 8.77256 4 12.5 4C16.2274 4 19.2491 7.13401 19.2491 11Z" fill="#0A0B0D"/>
<rect x="12.5" y="1" width="10" height="10" rx="5" fill="#FF2C20"/>
<rect x="12.5" y="1" width="10" height="10" rx="5" stroke="white" stroke-width="2"/>
</svg>
