<svg width="17" height="17" viewBox="0 0 17 17" fill="none" xmlns="http://www.w3.org/2000/svg">
    <path d="M6.53759 1.81617L7.1866 2.9791C7.7723 4.02858 7.53718 5.40532 6.61471 6.3278C6.61471 6.3278 6.61471 6.3278 6.61471 6.3278C6.61459 6.32792 5.49588 7.44685 7.52451 9.47548C9.55248 11.5035 10.6714 10.3861 10.6722 10.3853C10.6722 10.3853 10.6722 10.3853 10.6722 10.3853C11.5947 9.46281 12.9714 9.2277 14.0209 9.81339L15.1838 10.4624C16.7686 11.3468 16.9557 13.5692 15.5628 14.9622C14.7258 15.7992 13.7004 16.4505 12.5669 16.4934C10.6588 16.5658 7.41828 16.0829 4.1677 12.8323C0.917128 9.58172 0.434215 6.34122 0.506552 4.43309C0.549522 3.2996 1.2008 2.27423 2.03781 1.43723C3.43076 0.044282 5.65317 0.231437 6.53759 1.81617Z" fill="#4ABF4F"/>
</svg>
