<svg width="74" height="40" viewBox="0 0 74 40" fill="none" xmlns="http://www.w3.org/2000/svg">
<path fill-rule="evenodd" clip-rule="evenodd" d="M39.3787 10.1522C39.0083 10 38.5388 10 37.5999 10C36.6609 10 36.1914 10 35.821 10.1522C35.3273 10.3552 34.9349 10.7446 34.7304 11.2346C34.637 11.4583 34.6005 11.7185 34.5862 12.098C34.5652 12.6557 34.277 13.1719 33.79 13.4509C33.303 13.73 32.7085 13.7195 32.2113 13.4588C31.873 13.2813 31.6277 13.1826 31.3858 13.151C30.8559 13.0818 30.32 13.2243 29.896 13.5472C29.578 13.7894 29.3432 14.1929 28.8738 14.9999C28.4043 15.807 28.1695 16.2105 28.1172 16.6049C28.0474 17.1308 28.191 17.6627 28.5164 18.0835C28.6649 18.2756 28.8736 18.437 29.1976 18.639C29.6738 18.936 29.9802 19.4419 29.9801 20C29.9801 20.5581 29.6737 21.0639 29.1976 21.3608C28.8736 21.5629 28.6648 21.7244 28.5163 21.9165C28.1909 22.3373 28.0473 22.8691 28.1171 23.395C28.1694 23.7894 28.4042 24.193 28.8737 25C29.3431 25.807 29.5779 26.2106 29.8959 26.4527C30.3199 26.7756 30.8558 26.9181 31.3857 26.8489C31.6276 26.8173 31.8729 26.7186 32.2112 26.5412C32.7084 26.2804 33.303 26.27 33.79 26.549C34.277 26.8281 34.5652 27.3443 34.5862 27.9021C34.6005 28.2815 34.637 28.5417 34.7304 28.7654C34.9349 29.2554 35.3273 29.6448 35.821 29.8478C36.1914 30 36.6609 30 37.5999 30C38.5388 30 39.0083 30 39.3787 29.8478C39.8724 29.6448 40.2648 29.2554 40.4693 28.7654C40.5627 28.5417 40.5992 28.2815 40.6135 27.902C40.6345 27.3443 40.9227 26.8281 41.4096 26.549C41.8966 26.2699 42.4913 26.2804 42.9885 26.5412C43.3267 26.7186 43.572 26.8172 43.8139 26.8488C44.3438 26.9181 44.8797 26.7756 45.3037 26.4527C45.6217 26.2105 45.8565 25.807 46.326 24.9999C46.7954 24.1929 47.0302 23.7894 47.0825 23.395C47.1523 22.8691 47.0087 22.3372 46.6833 21.9164C46.5348 21.7243 46.3261 21.5628 46.0021 21.3608C45.5259 21.0639 45.2195 20.558 45.2196 19.9999C45.2196 19.4418 45.526 18.9361 46.0021 18.6392C46.3261 18.4371 46.5349 18.2757 46.6834 18.0835C47.0088 17.6627 47.1524 17.1309 47.0826 16.605C47.0303 16.2106 46.7955 15.807 46.326 15C45.8566 14.193 45.6218 13.7894 45.3038 13.5473C44.8798 13.2244 44.3439 13.0818 43.814 13.1511C43.5721 13.1827 43.3268 13.2814 42.9885 13.4588C42.4913 13.7196 41.8968 13.73 41.4097 13.451C40.9227 13.1719 40.6345 12.6557 40.6135 12.0979C40.5992 11.7185 40.5627 11.4583 40.4693 11.2346C40.2648 10.7446 39.8724 10.3552 39.3787 10.1522ZM37.5999 23C39.2693 23 40.6227 21.6569 40.6227 20C40.6227 18.3431 39.2693 17 37.5999 17C35.9304 17 34.577 18.3431 34.577 20C34.577 21.6569 35.9304 23 37.5999 23Z" fill="#0A0B0D"/>
</svg>
