<svg width="50" height="36" viewBox="0 0 50 36" fill="none" xmlns="http://www.w3.org/2000/svg">
    <g filter="url(#filter0_d_589_1670)">
        <path d="M25.8861 30.0502V26.7396C33.3856 28.5205 37.8324 28.3336 45.9341 26.7363V30.0393C45.9341 30.3803 45.6946 30.6756 45.3609 30.7454C37.8399 32.3176 33.5051 32.3425 26.4469 30.7532C26.119 30.6793 25.8861 30.3867 25.8861 30.0502Z" fill="url(#paint0_linear_589_1670)" stroke="url(#paint1_linear_589_1670)" stroke-width="0.131615"/>
        <g filter="url(#filter1_d_589_1670)">
            <ellipse cx="35.9101" cy="26.5592" rx="10.0898" ry="1.8356" fill="url(#paint2_linear_589_1670)"/>
            <path d="M45.9341 26.5592C45.9341 26.6596 45.8784 26.7669 45.7512 26.88C45.6242 26.9929 45.4332 27.1048 45.181 27.2133C44.6771 27.43 43.9439 27.6267 43.0329 27.7925C41.2119 28.1237 38.6936 28.329 35.9101 28.329C33.1266 28.329 30.6083 28.1237 28.7873 27.7925C27.8763 27.6267 27.1431 27.43 26.6392 27.2133C26.387 27.1048 26.196 26.9929 26.069 26.88C25.9418 26.7669 25.8861 26.6596 25.8861 26.5592C25.8861 26.4589 25.9418 26.3516 26.069 26.2385C26.196 26.1256 26.387 26.0137 26.6392 25.9052C27.1431 25.6885 27.8763 25.4918 28.7873 25.326C30.6083 24.9947 33.1266 24.7894 35.9101 24.7894C38.6936 24.7894 41.2119 24.9947 43.0329 25.326C43.9439 25.4918 44.6771 25.6885 45.181 25.9052C45.4332 26.0137 45.6242 26.1256 45.7512 26.2385C45.8784 26.3516 45.9341 26.4589 45.9341 26.5592Z" stroke="white" stroke-opacity="0.2" stroke-width="0.131615"/>
        </g>
    </g>
    <g filter="url(#filter2_d_589_1670)">
        <path d="M3.06581 30.0492V26.7386C10.5653 28.5195 15.0121 28.3327 23.1137 26.7353V30.0383C23.1137 30.3793 22.8742 30.6747 22.5406 30.7444C15.0196 32.3166 10.6848 32.3415 3.62663 30.7522C3.29868 30.6783 3.06581 30.3858 3.06581 30.0492Z" fill="url(#paint3_linear_589_1670)" stroke="url(#paint4_linear_589_1670)" stroke-width="0.131615"/>
        <g filter="url(#filter3_d_589_1670)">
            <ellipse cx="13.0898" cy="26.5592" rx="10.0898" ry="1.8356" fill="url(#paint5_linear_589_1670)"/>
            <path d="M23.1137 26.5592C23.1137 26.6596 23.0581 26.7669 22.9308 26.88C22.8039 26.9929 22.6129 27.1048 22.3606 27.2133C21.8568 27.43 21.1236 27.6267 20.2125 27.7925C18.3916 28.1237 15.8733 28.329 13.0898 28.329C10.3063 28.329 7.78795 28.1237 5.96701 27.7925C5.05599 27.6267 4.3228 27.43 3.81891 27.2133C3.56671 27.1048 3.37566 26.9929 3.24871 26.88C3.12149 26.7669 3.06581 26.6596 3.06581 26.5592C3.06581 26.4589 3.12149 26.3516 3.24871 26.2385C3.37566 26.1256 3.56671 26.0137 3.81891 25.9052C4.3228 25.6885 5.05599 25.4918 5.96701 25.326C7.78795 24.9947 10.3063 24.7894 13.0898 24.7894C15.8733 24.7894 18.3916 24.9947 20.2125 25.326C21.1236 25.4918 21.8568 25.6885 22.3606 25.9052C22.6129 26.0137 22.8039 26.1256 22.9308 26.2385C23.0581 26.3516 23.1137 26.4589 23.1137 26.5592Z" stroke="white" stroke-opacity="0.2" stroke-width="0.131615"/>
        </g>
    </g>
    <g filter="url(#filter4_d_589_1670)">
        <path d="M25.8861 24.2367V20.9261C33.3856 22.707 37.8324 22.5202 45.9341 20.9228V24.2258C45.9341 24.5668 45.6946 24.8622 45.3609 24.9319C37.8399 26.5041 33.5051 26.529 26.4469 24.9397C26.119 24.8658 25.8861 24.5733 25.8861 24.2367Z" fill="url(#paint6_linear_589_1670)" stroke="url(#paint7_linear_589_1670)" stroke-width="0.131615"/>
        <g filter="url(#filter5_d_589_1670)">
            <ellipse cx="35.9101" cy="20.7467" rx="10.0898" ry="1.8356" fill="url(#paint8_linear_589_1670)"/>
            <path d="M45.9341 20.7467C45.9341 20.8471 45.8784 20.9544 45.7512 21.0675C45.6242 21.1804 45.4332 21.2923 45.181 21.4008C44.6771 21.6175 43.9439 21.8142 43.0329 21.98C41.2119 22.3112 38.6936 22.5165 35.9101 22.5165C33.1266 22.5165 30.6083 22.3112 28.7873 21.98C27.8763 21.8142 27.1431 21.6175 26.6392 21.4008C26.387 21.2923 26.196 21.1804 26.069 21.0675C25.9418 20.9544 25.8861 20.8471 25.8861 20.7467C25.8861 20.6464 25.9418 20.5391 26.069 20.426C26.196 20.3131 26.387 20.2012 26.6392 20.0927C27.1431 19.876 27.8763 19.6793 28.7873 19.5135C30.6083 19.1822 33.1266 18.9769 35.9101 18.9769C38.6936 18.9769 41.2119 19.1822 43.0329 19.5135C43.9439 19.6793 44.6771 19.876 45.181 20.0927C45.4332 20.2012 45.6242 20.3131 45.7512 20.426C45.8784 20.5391 45.9341 20.6464 45.9341 20.7467Z" stroke="white" stroke-opacity="0.2" stroke-width="0.131615"/>
        </g>
    </g>
    <g filter="url(#filter6_d_589_1670)">
        <path d="M3.06581 24.2367V20.9261C10.5653 22.707 15.0121 22.5202 23.1137 20.9228V24.2258C23.1137 24.5668 22.8742 24.8622 22.5406 24.9319C15.0196 26.5041 10.6848 26.529 3.62663 24.9397C3.29868 24.8658 3.06581 24.5733 3.06581 24.2367Z" fill="#925FE2" stroke="url(#paint9_linear_589_1670)" stroke-width="0.131615"/>
        <g filter="url(#filter7_d_589_1670)">
            <ellipse cx="13.0898" cy="20.7467" rx="10.0898" ry="1.8356" fill="#925FE2"/>
            <path d="M23.1137 20.7467C23.1137 20.8471 23.0581 20.9544 22.9308 21.0675C22.8039 21.1804 22.6129 21.2923 22.3606 21.4008C21.8568 21.6175 21.1236 21.8142 20.2125 21.98C18.3916 22.3112 15.8733 22.5165 13.0898 22.5165C10.3063 22.5165 7.78795 22.3112 5.96701 21.98C5.05599 21.8142 4.3228 21.6175 3.81891 21.4008C3.56671 21.2923 3.37566 21.1804 3.24871 21.0675C3.12149 20.9544 3.06581 20.8471 3.06581 20.7467C3.06581 20.6464 3.12149 20.5391 3.24871 20.426C3.37566 20.3131 3.56671 20.2012 3.81891 20.0927C4.3228 19.876 5.05599 19.6793 5.96701 19.5135C7.78795 19.1822 10.3063 18.9769 13.0898 18.9769C15.8733 18.9769 18.3916 19.1822 20.2125 19.5135C21.1236 19.6793 21.8568 19.876 22.3606 20.0927C22.6129 20.2012 22.8039 20.3131 22.9308 20.426C23.0581 20.5391 23.1137 20.6464 23.1137 20.7467Z" stroke="#E2D4F7" stroke-width="0.131615"/>
        </g>
        <g filter="url(#filter8_f_589_1670)">
            <ellipse cx="13.2347" cy="20.8214" rx="5.41777" ry="0.415196" fill="#E2D4F7"/>
        </g>
    </g>
    <g filter="url(#filter9_d_589_1670)">
        <path d="M25.8773 18.4409V15.1302C33.3769 16.9111 37.8236 16.7243 45.9253 15.1269V18.4299C45.9253 18.7709 45.6858 19.0663 45.3521 19.136C37.8312 20.7082 33.4963 20.7331 26.4382 19.1438C26.1102 19.0699 25.8773 18.7774 25.8773 18.4409Z" fill="url(#paint10_linear_589_1670)" stroke="url(#paint11_linear_589_1670)" stroke-width="0.131615"/>
        <g filter="url(#filter10_d_589_1670)">
            <ellipse cx="35.9013" cy="14.9508" rx="10.0898" ry="1.8356" fill="url(#paint12_linear_589_1670)"/>
            <path d="M45.9253 14.9508C45.9253 15.0512 45.8696 15.1585 45.7424 15.2716C45.6154 15.3845 45.4244 15.4964 45.1722 15.6049C44.6683 15.8216 43.9351 16.0183 43.0241 16.1841C41.2031 16.5153 38.6848 16.7206 35.9013 16.7206C33.1178 16.7206 30.5995 16.5153 28.7785 16.1841C27.8675 16.0183 27.1343 15.8216 26.6304 15.6049C26.3782 15.4964 26.1872 15.3845 26.0602 15.2716C25.933 15.1585 25.8773 15.0512 25.8773 14.9508C25.8773 14.8505 25.933 14.7432 26.0602 14.6301C26.1872 14.5172 26.3782 14.4053 26.6304 14.2968C27.1343 14.0801 27.8675 13.8834 28.7785 13.7176C30.5995 13.3863 33.1178 13.181 35.9013 13.181C38.6848 13.181 41.2031 13.3863 43.0241 13.7176C43.9351 13.8834 44.6683 14.0801 45.1722 14.2968C45.4244 14.4053 45.6154 14.5172 45.7424 14.6301C45.8696 14.7432 45.9253 14.8505 45.9253 14.9508Z" stroke="white" stroke-opacity="0.2" stroke-width="0.131615"/>
        </g>
    </g>
    <g filter="url(#filter11_d_589_1670)">
        <path d="M25.8773 12.6635V9.35284C33.3769 11.1337 37.8236 10.9469 45.9253 9.3496V12.6525C45.9253 12.9936 45.6858 13.2889 45.3521 13.3587C37.8312 14.9309 33.4963 14.9557 26.4382 13.3664C26.1102 13.2926 25.8773 13 25.8773 12.6635Z" fill="url(#paint13_linear_589_1670)" stroke="url(#paint14_linear_589_1670)" stroke-width="0.131615"/>
        <g filter="url(#filter12_d_589_1670)">
            <ellipse cx="35.9013" cy="9.17349" rx="10.0898" ry="1.8356" fill="url(#paint15_linear_589_1670)"/>
            <path d="M45.9253 9.17349C45.9253 9.27387 45.8696 9.38115 45.7424 9.49425C45.6154 9.60712 45.4244 9.71906 45.1722 9.82754C44.6683 10.0443 43.9351 10.241 43.0241 10.4067C41.2031 10.738 38.6848 10.9433 35.9013 10.9433C33.1178 10.9433 30.5995 10.738 28.7785 10.4067C27.8675 10.241 27.1343 10.0443 26.6304 9.82754C26.3782 9.71906 26.1872 9.60712 26.0602 9.49425C25.933 9.38115 25.8773 9.27387 25.8773 9.17349C25.8773 9.07312 25.933 8.96584 26.0602 8.85274C26.1872 8.73987 26.3782 8.62792 26.6304 8.51945C27.1343 8.30271 27.8675 8.10601 28.7785 7.94027C30.5995 7.60899 33.1178 7.4037 35.9013 7.4037C38.6848 7.4037 41.2031 7.60899 43.0241 7.94027C43.9351 8.10601 44.6683 8.30271 45.1722 8.51945C45.4244 8.62792 45.6154 8.73987 45.7424 8.85274C45.8696 8.96584 45.9253 9.07312 45.9253 9.17349Z" stroke="white" stroke-opacity="0.2" stroke-width="0.131615"/>
        </g>
    </g>
    <g filter="url(#filter13_d_589_1670)">
        <path d="M23.0458 7.32562V4.01495C30.5453 5.79586 34.992 5.60903 43.0937 4.01171V7.31465C43.0937 7.65569 42.8542 7.95104 42.5206 8.02079C34.9996 9.59297 30.6648 9.61785 23.6066 8.02855C23.2787 7.95471 23.0458 7.66213 23.0458 7.32562Z" fill="url(#paint16_linear_589_1670)" stroke="url(#paint17_linear_589_1670)" stroke-width="0.131615"/>
        <g filter="url(#filter14_d_589_1670)">
            <ellipse cx="33.0698" cy="3.8356" rx="10.0898" ry="1.8356" fill="url(#paint18_linear_589_1670)"/>
            <path d="M43.0937 3.8356C43.0937 3.93598 43.038 4.04326 42.9108 4.15636C42.7839 4.26923 42.5928 4.38117 42.3406 4.48965C41.8367 4.70639 41.1035 4.90309 40.1925 5.06883C38.3716 5.40011 35.8533 5.6054 33.0698 5.6054C30.2862 5.6054 27.7679 5.40011 25.947 5.06883C25.036 4.90309 24.3028 4.70639 23.7989 4.48965C23.5467 4.38117 23.3556 4.26923 23.2287 4.15636C23.1015 4.04326 23.0458 3.93598 23.0458 3.8356C23.0458 3.73523 23.1015 3.62795 23.2287 3.51485C23.3556 3.40198 23.5467 3.29003 23.7989 3.18156C24.3028 2.96482 25.036 2.76812 25.947 2.60238C27.7679 2.2711 30.2862 2.06581 33.0698 2.06581C35.8533 2.06581 38.3716 2.2711 40.1925 2.60238C41.1035 2.76812 41.8367 2.96482 42.3406 3.18156C42.5928 3.29003 42.7839 3.40198 42.9108 3.51485C43.038 3.62795 43.0937 3.73523 43.0937 3.8356Z" stroke="white" stroke-opacity="0.2" stroke-width="0.131615"/>
        </g>
    </g>
    <defs>
        <filter id="filter0_d_589_1670" x="24.7674" y="23.9339" width="24.9178" height="12.0155" filterUnits="userSpaceOnUse" color-interpolation-filters="sRGB">
            <feFlood flood-opacity="0" result="BackgroundImageFix"/>
            <feColorMatrix in="SourceAlpha" type="matrix" values="0 0 0 0 0 0 0 0 0 0 0 0 0 0 0 0 0 0 127 0" result="hardAlpha"/>
            <feOffset dx="1.31615" dy="1.57937"/>
            <feGaussianBlur stdDeviation="1.18453"/>
            <feComposite in2="hardAlpha" operator="out"/>
            <feColorMatrix type="matrix" values="0 0 0 0 0.228976 0 0 0 0 0.34229 0 0 0 0 0.504167 0 0 0 0.15 0"/>
            <feBlend mode="normal" in2="BackgroundImageFix" result="effect1_dropShadow_589_1670"/>
            <feBlend mode="normal" in="SourceGraphic" in2="effect1_dropShadow_589_1670" result="shape"/>
        </filter>
        <filter id="filter1_d_589_1670" x="23.7145" y="23.4075" width="24.3914" height="7.88256" filterUnits="userSpaceOnUse" color-interpolation-filters="sRGB">
            <feFlood flood-opacity="0" result="BackgroundImageFix"/>
            <feColorMatrix in="SourceAlpha" type="matrix" values="0 0 0 0 0 0 0 0 0 0 0 0 0 0 0 0 0 0 127 0" result="hardAlpha"/>
            <feOffset dy="0.789687"/>
            <feGaussianBlur stdDeviation="1.05292"/>
            <feComposite in2="hardAlpha" operator="out"/>
            <feColorMatrix type="matrix" values="0 0 0 0 0.6825 0 0 0 0 0.782885 0 0 0 0 0.9 0 0 0 0.5 0"/>
            <feBlend mode="normal" in2="BackgroundImageFix" result="effect1_dropShadow_589_1670"/>
            <feBlend mode="normal" in="SourceGraphic" in2="effect1_dropShadow_589_1670" result="shape"/>
        </filter>
        <filter id="filter2_d_589_1670" x="1.94708" y="23.9339" width="24.9178" height="12.0145" filterUnits="userSpaceOnUse" color-interpolation-filters="sRGB">
            <feFlood flood-opacity="0" result="BackgroundImageFix"/>
            <feColorMatrix in="SourceAlpha" type="matrix" values="0 0 0 0 0 0 0 0 0 0 0 0 0 0 0 0 0 0 127 0" result="hardAlpha"/>
            <feOffset dx="1.31615" dy="1.57937"/>
            <feGaussianBlur stdDeviation="1.18453"/>
            <feComposite in2="hardAlpha" operator="out"/>
            <feColorMatrix type="matrix" values="0 0 0 0 0.228976 0 0 0 0 0.34229 0 0 0 0 0.504167 0 0 0 0.15 0"/>
            <feBlend mode="normal" in2="BackgroundImageFix" result="effect1_dropShadow_589_1670"/>
            <feBlend mode="normal" in="SourceGraphic" in2="effect1_dropShadow_589_1670" result="shape"/>
        </filter>
        <filter id="filter3_d_589_1670" x="0.894168" y="23.4075" width="24.3914" height="7.88256" filterUnits="userSpaceOnUse" color-interpolation-filters="sRGB">
            <feFlood flood-opacity="0" result="BackgroundImageFix"/>
            <feColorMatrix in="SourceAlpha" type="matrix" values="0 0 0 0 0 0 0 0 0 0 0 0 0 0 0 0 0 0 127 0" result="hardAlpha"/>
            <feOffset dy="0.789687"/>
            <feGaussianBlur stdDeviation="1.05292"/>
            <feComposite in2="hardAlpha" operator="out"/>
            <feColorMatrix type="matrix" values="0 0 0 0 0.6825 0 0 0 0 0.782885 0 0 0 0 0.9 0 0 0 0.5 0"/>
            <feBlend mode="normal" in2="BackgroundImageFix" result="effect1_dropShadow_589_1670"/>
            <feBlend mode="normal" in="SourceGraphic" in2="effect1_dropShadow_589_1670" result="shape"/>
        </filter>
        <filter id="filter4_d_589_1670" x="24.7674" y="18.1214" width="24.9178" height="12.0145" filterUnits="userSpaceOnUse" color-interpolation-filters="sRGB">
            <feFlood flood-opacity="0" result="BackgroundImageFix"/>
            <feColorMatrix in="SourceAlpha" type="matrix" values="0 0 0 0 0 0 0 0 0 0 0 0 0 0 0 0 0 0 127 0" result="hardAlpha"/>
            <feOffset dx="1.31615" dy="1.57937"/>
            <feGaussianBlur stdDeviation="1.18453"/>
            <feComposite in2="hardAlpha" operator="out"/>
            <feColorMatrix type="matrix" values="0 0 0 0 0.228976 0 0 0 0 0.34229 0 0 0 0 0.504167 0 0 0 0.15 0"/>
            <feBlend mode="normal" in2="BackgroundImageFix" result="effect1_dropShadow_589_1670"/>
            <feBlend mode="normal" in="SourceGraphic" in2="effect1_dropShadow_589_1670" result="shape"/>
        </filter>
        <filter id="filter5_d_589_1670" x="23.7145" y="17.595" width="24.3914" height="7.88256" filterUnits="userSpaceOnUse" color-interpolation-filters="sRGB">
            <feFlood flood-opacity="0" result="BackgroundImageFix"/>
            <feColorMatrix in="SourceAlpha" type="matrix" values="0 0 0 0 0 0 0 0 0 0 0 0 0 0 0 0 0 0 127 0" result="hardAlpha"/>
            <feOffset dy="0.789687"/>
            <feGaussianBlur stdDeviation="1.05292"/>
            <feComposite in2="hardAlpha" operator="out"/>
            <feColorMatrix type="matrix" values="0 0 0 0 0.6825 0 0 0 0 0.782885 0 0 0 0 0.9 0 0 0 0.5 0"/>
            <feBlend mode="normal" in2="BackgroundImageFix" result="effect1_dropShadow_589_1670"/>
            <feBlend mode="normal" in="SourceGraphic" in2="effect1_dropShadow_589_1670" result="shape"/>
        </filter>
        <filter id="filter6_d_589_1670" x="1.94708" y="18.1214" width="24.9178" height="12.0145" filterUnits="userSpaceOnUse" color-interpolation-filters="sRGB">
            <feFlood flood-opacity="0" result="BackgroundImageFix"/>
            <feColorMatrix in="SourceAlpha" type="matrix" values="0 0 0 0 0 0 0 0 0 0 0 0 0 0 0 0 0 0 127 0" result="hardAlpha"/>
            <feOffset dx="1.31615" dy="1.57937"/>
            <feGaussianBlur stdDeviation="1.18453"/>
            <feComposite in2="hardAlpha" operator="out"/>
            <feColorMatrix type="matrix" values="0 0 0 0 0.228976 0 0 0 0 0.34229 0 0 0 0 0.504167 0 0 0 0.15 0"/>
            <feBlend mode="normal" in2="BackgroundImageFix" result="effect1_dropShadow_589_1670"/>
            <feBlend mode="normal" in="SourceGraphic" in2="effect1_dropShadow_589_1670" result="shape"/>
        </filter>
        <filter id="filter7_d_589_1670" x="0.894168" y="17.595" width="24.3914" height="7.88256" filterUnits="userSpaceOnUse" color-interpolation-filters="sRGB">
            <feFlood flood-opacity="0" result="BackgroundImageFix"/>
            <feColorMatrix in="SourceAlpha" type="matrix" values="0 0 0 0 0 0 0 0 0 0 0 0 0 0 0 0 0 0 127 0" result="hardAlpha"/>
            <feOffset dy="0.789687"/>
            <feGaussianBlur stdDeviation="1.05292"/>
            <feComposite in2="hardAlpha" operator="out"/>
            <feColorMatrix type="matrix" values="0 0 0 0 0.6825 0 0 0 0 0.782885 0 0 0 0 0.9 0 0 0 0.5 0"/>
            <feBlend mode="normal" in2="BackgroundImageFix" result="effect1_dropShadow_589_1670"/>
            <feBlend mode="normal" in="SourceGraphic" in2="effect1_dropShadow_589_1670" result="shape"/>
        </filter>
        <filter id="filter8_f_589_1670" x="2.55231" y="15.1417" width="21.3646" height="11.3592" filterUnits="userSpaceOnUse" color-interpolation-filters="sRGB">
            <feFlood flood-opacity="0" result="BackgroundImageFix"/>
            <feBlend mode="normal" in="SourceGraphic" in2="BackgroundImageFix" result="shape"/>
            <feGaussianBlur stdDeviation="2.63229" result="effect1_foregroundBlur_589_1670"/>
        </filter>
        <filter id="filter9_d_589_1670" x="24.7586" y="12.3255" width="24.9178" height="12.0145" filterUnits="userSpaceOnUse" color-interpolation-filters="sRGB">
            <feFlood flood-opacity="0" result="BackgroundImageFix"/>
            <feColorMatrix in="SourceAlpha" type="matrix" values="0 0 0 0 0 0 0 0 0 0 0 0 0 0 0 0 0 0 127 0" result="hardAlpha"/>
            <feOffset dx="1.31615" dy="1.57937"/>
            <feGaussianBlur stdDeviation="1.18453"/>
            <feComposite in2="hardAlpha" operator="out"/>
            <feColorMatrix type="matrix" values="0 0 0 0 0.228976 0 0 0 0 0.34229 0 0 0 0 0.504167 0 0 0 0.15 0"/>
            <feBlend mode="normal" in2="BackgroundImageFix" result="effect1_dropShadow_589_1670"/>
            <feBlend mode="normal" in="SourceGraphic" in2="effect1_dropShadow_589_1670" result="shape"/>
        </filter>
        <filter id="filter10_d_589_1670" x="23.7057" y="11.7991" width="24.3914" height="7.88256" filterUnits="userSpaceOnUse" color-interpolation-filters="sRGB">
            <feFlood flood-opacity="0" result="BackgroundImageFix"/>
            <feColorMatrix in="SourceAlpha" type="matrix" values="0 0 0 0 0 0 0 0 0 0 0 0 0 0 0 0 0 0 127 0" result="hardAlpha"/>
            <feOffset dy="0.789687"/>
            <feGaussianBlur stdDeviation="1.05292"/>
            <feComposite in2="hardAlpha" operator="out"/>
            <feColorMatrix type="matrix" values="0 0 0 0 0.6825 0 0 0 0 0.782885 0 0 0 0 0.9 0 0 0 0.5 0"/>
            <feBlend mode="normal" in2="BackgroundImageFix" result="effect1_dropShadow_589_1670"/>
            <feBlend mode="normal" in="SourceGraphic" in2="effect1_dropShadow_589_1670" result="shape"/>
        </filter>
        <filter id="filter11_d_589_1670" x="24.7586" y="6.5482" width="24.9178" height="12.0145" filterUnits="userSpaceOnUse" color-interpolation-filters="sRGB">
            <feFlood flood-opacity="0" result="BackgroundImageFix"/>
            <feColorMatrix in="SourceAlpha" type="matrix" values="0 0 0 0 0 0 0 0 0 0 0 0 0 0 0 0 0 0 127 0" result="hardAlpha"/>
            <feOffset dx="1.31615" dy="1.57937"/>
            <feGaussianBlur stdDeviation="1.18453"/>
            <feComposite in2="hardAlpha" operator="out"/>
            <feColorMatrix type="matrix" values="0 0 0 0 0.228976 0 0 0 0 0.34229 0 0 0 0 0.504167 0 0 0 0.15 0"/>
            <feBlend mode="normal" in2="BackgroundImageFix" result="effect1_dropShadow_589_1670"/>
            <feBlend mode="normal" in="SourceGraphic" in2="effect1_dropShadow_589_1670" result="shape"/>
        </filter>
        <filter id="filter12_d_589_1670" x="23.7057" y="6.02175" width="24.3914" height="7.88256" filterUnits="userSpaceOnUse" color-interpolation-filters="sRGB">
            <feFlood flood-opacity="0" result="BackgroundImageFix"/>
            <feColorMatrix in="SourceAlpha" type="matrix" values="0 0 0 0 0 0 0 0 0 0 0 0 0 0 0 0 0 0 127 0" result="hardAlpha"/>
            <feOffset dy="0.789687"/>
            <feGaussianBlur stdDeviation="1.05292"/>
            <feComposite in2="hardAlpha" operator="out"/>
            <feColorMatrix type="matrix" values="0 0 0 0 0.6825 0 0 0 0 0.782885 0 0 0 0 0.9 0 0 0 0.5 0"/>
            <feBlend mode="normal" in2="BackgroundImageFix" result="effect1_dropShadow_589_1670"/>
            <feBlend mode="normal" in="SourceGraphic" in2="effect1_dropShadow_589_1670" result="shape"/>
        </filter>
        <filter id="filter13_d_589_1670" x="21.9271" y="1.21031" width="24.9178" height="12.0145" filterUnits="userSpaceOnUse" color-interpolation-filters="sRGB">
            <feFlood flood-opacity="0" result="BackgroundImageFix"/>
            <feColorMatrix in="SourceAlpha" type="matrix" values="0 0 0 0 0 0 0 0 0 0 0 0 0 0 0 0 0 0 127 0" result="hardAlpha"/>
            <feOffset dx="1.31615" dy="1.57937"/>
            <feGaussianBlur stdDeviation="1.18453"/>
            <feComposite in2="hardAlpha" operator="out"/>
            <feColorMatrix type="matrix" values="0 0 0 0 0.228976 0 0 0 0 0.34229 0 0 0 0 0.504167 0 0 0 0.15 0"/>
            <feBlend mode="normal" in2="BackgroundImageFix" result="effect1_dropShadow_589_1670"/>
            <feBlend mode="normal" in="SourceGraphic" in2="effect1_dropShadow_589_1670" result="shape"/>
        </filter>
        <filter id="filter14_d_589_1670" x="20.8741" y="0.683855" width="24.3914" height="7.88256" filterUnits="userSpaceOnUse" color-interpolation-filters="sRGB">
            <feFlood flood-opacity="0" result="BackgroundImageFix"/>
            <feColorMatrix in="SourceAlpha" type="matrix" values="0 0 0 0 0 0 0 0 0 0 0 0 0 0 0 0 0 0 127 0" result="hardAlpha"/>
            <feOffset dy="0.789687"/>
            <feGaussianBlur stdDeviation="1.05292"/>
            <feComposite in2="hardAlpha" operator="out"/>
            <feColorMatrix type="matrix" values="0 0 0 0 0.6825 0 0 0 0 0.782885 0 0 0 0 0.9 0 0 0 0.5 0"/>
            <feBlend mode="normal" in2="BackgroundImageFix" result="effect1_dropShadow_589_1670"/>
            <feBlend mode="normal" in="SourceGraphic" in2="effect1_dropShadow_589_1670" result="shape"/>
        </filter>
        <linearGradient id="paint0_linear_589_1670" x1="35.9101" y1="26.6562" x2="41.5922" y2="38.4014" gradientUnits="userSpaceOnUse">
            <stop stop-color="#925FE2"/>
            <stop offset="1" stop-color="#E2D4F7"/>
        </linearGradient>
        <linearGradient id="paint1_linear_589_1670" x1="35.9101" y1="26.6562" x2="35.9101" y2="32.0007" gradientUnits="userSpaceOnUse">
            <stop stop-color="#925FE2"/>
            <stop offset="1" stop-color="#DFE7F5"/>
        </linearGradient>
        <linearGradient id="paint2_linear_589_1670" x1="35.9101" y1="24.7236" x2="38.8897" y2="33.6897" gradientUnits="userSpaceOnUse">
            <stop stop-color="#925FE2"/>
            <stop offset="1" stop-color="#E2D4F7"/>
        </linearGradient>
        <linearGradient id="paint3_linear_589_1670" x1="13.0898" y1="26.6553" x2="19.9506" y2="37.0531" gradientUnits="userSpaceOnUse">
            <stop stop-color="#925FE2"/>
            <stop offset="1" stop-color="#E2D4F7"/>
        </linearGradient>
        <linearGradient id="paint4_linear_589_1670" x1="13.0898" y1="26.6553" x2="13.0898" y2="31.9997" gradientUnits="userSpaceOnUse">
            <stop stop-color="#925FE2"/>
            <stop offset="1" stop-color="#DFE7F5"/>
        </linearGradient>
        <linearGradient id="paint5_linear_589_1670" x1="13.0898" y1="24.7236" x2="16.9447" y2="33.2286" gradientUnits="userSpaceOnUse">
            <stop stop-color="#925FE2"/>
            <stop offset="1" stop-color="#E2D4F7"/>
        </linearGradient>
        <linearGradient id="paint6_linear_589_1670" x1="35.9101" y1="20.8428" x2="40.9721" y2="34.9833" gradientUnits="userSpaceOnUse">
            <stop stop-color="#925FE2"/>
            <stop offset="1" stop-color="#E2D4F7"/>
        </linearGradient>
        <linearGradient id="paint7_linear_589_1670" x1="35.9101" y1="20.8428" x2="35.9101" y2="26.1872" gradientUnits="userSpaceOnUse">
            <stop stop-color="#925FE2"/>
            <stop offset="1" stop-color="#DFE7F5"/>
        </linearGradient>
        <linearGradient id="paint8_linear_589_1670" x1="35.9101" y1="18.9111" x2="38.4511" y2="29.2445" gradientUnits="userSpaceOnUse">
            <stop stop-color="#925FE2"/>
            <stop offset="1" stop-color="#E2D4F7"/>
        </linearGradient>
        <linearGradient id="paint9_linear_589_1670" x1="13.0898" y1="20.8428" x2="13.0898" y2="26.1872" gradientUnits="userSpaceOnUse">
            <stop stop-color="#925FE2"/>
            <stop offset="1" stop-color="#E2D4F7"/>
        </linearGradient>
        <linearGradient id="paint10_linear_589_1670" x1="35.9013" y1="15.0469" x2="42.0534" y2="27.8493" gradientUnits="userSpaceOnUse">
            <stop stop-color="#925FE2"/>
            <stop offset="1" stop-color="#E2D4F7"/>
        </linearGradient>
        <linearGradient id="paint11_linear_589_1670" x1="35.9013" y1="15.0469" x2="35.9013" y2="20.3913" gradientUnits="userSpaceOnUse">
            <stop stop-color="#925FE2"/>
            <stop offset="1" stop-color="#DFE7F5"/>
        </linearGradient>
        <linearGradient id="paint12_linear_589_1670" x1="35.9013" y1="13.1152" x2="39.1235" y2="22.8767" gradientUnits="userSpaceOnUse">
            <stop stop-color="#925FE2"/>
            <stop offset="1" stop-color="#E2D4F7"/>
        </linearGradient>
        <linearGradient id="paint13_linear_589_1670" x1="35.9013" y1="9.26953" x2="40.212" y2="21.5142" gradientUnits="userSpaceOnUse">
            <stop stop-color="#925FE2"/>
            <stop offset="1" stop-color="#E2D4F7"/>
        </linearGradient>
        <linearGradient id="paint14_linear_589_1670" x1="35.9013" y1="9.26953" x2="35.9013" y2="14.614" gradientUnits="userSpaceOnUse">
            <stop stop-color="#925FE2"/>
            <stop offset="1" stop-color="#DFE7F5"/>
        </linearGradient>
        <linearGradient id="paint15_linear_589_1670" x1="35.9013" y1="7.33789" x2="38.0611" y2="16.2691" gradientUnits="userSpaceOnUse">
            <stop stop-color="#925FE2"/>
            <stop offset="1" stop-color="#E2D4F7"/>
        </linearGradient>
        <linearGradient id="paint16_linear_589_1670" x1="33.0698" y1="3.93164" x2="35.3048" y2="19.117" gradientUnits="userSpaceOnUse">
            <stop stop-color="#925FE2"/>
            <stop offset="1" stop-color="#E2D4F7"/>
        </linearGradient>
        <linearGradient id="paint17_linear_589_1670" x1="33.0698" y1="3.93164" x2="33.0698" y2="9.27606" gradientUnits="userSpaceOnUse">
            <stop stop-color="#925FE2"/>
            <stop offset="1" stop-color="#DFE7F5"/>
        </linearGradient>
        <linearGradient id="paint18_linear_589_1670" x1="33.0698" y1="2" x2="34.1363" y2="12.5493" gradientUnits="userSpaceOnUse">
            <stop stop-color="#925FE2"/>
            <stop offset="1" stop-color="#E2D4F7"/>
        </linearGradient>
    </defs>
</svg>
