<svg width="248" height="249" viewBox="0 0 248 249" fill="none" xmlns="http://www.w3.org/2000/svg">
<path d="M159.252 47.0373C171.602 44.2177 183.655 52.7748 185.066 65.3633C185.917 72.9593 190.788 79.511 197.817 82.5146C209.465 87.4923 214.187 101.5 207.929 112.513C204.153 119.16 204.243 127.322 208.164 133.884C214.662 144.757 210.249 158.865 198.712 164.097C191.751 167.255 187.025 173.911 186.34 181.524C185.206 194.14 173.343 202.96 160.935 200.412C153.447 198.874 145.711 201.482 140.682 207.238C132.349 216.778 117.568 216.941 109.027 207.586C103.873 201.941 96.0817 199.504 88.6302 201.205C76.2807 204.025 64.227 195.468 62.8159 182.879C61.9644 175.283 57.0942 168.732 50.065 165.728C38.4169 160.75 33.6948 146.743 39.9527 135.729C43.729 129.083 43.6392 120.92 39.7185 114.359C33.2204 103.485 37.634 89.3767 49.1702 84.145C56.1316 80.9878 60.8572 74.3312 61.5419 66.7181C62.6765 54.1014 74.5394 45.2823 86.9478 47.8306C94.435 49.368 102.171 46.7608 107.199 41.0039C115.533 31.4638 130.314 31.3019 138.855 40.6566C144.009 46.3019 151.8 48.7389 159.252 47.0373Z" fill="#003399"/>
<path d="M163.502 92.8651C166.132 95.4953 166.132 99.7592 163.502 102.389L108.783 157.108L83.5278 131.853C80.8976 129.223 80.8976 124.959 83.5278 122.329C86.1577 119.699 90.4218 119.699 93.052 122.329L108.783 138.06L153.978 92.8651C156.608 90.235 160.872 90.235 163.502 92.8651Z" fill="#EEF0F2"/>
</svg>
